HIERARCHY
ROOT Hips
{
	OFFSET 0.000000 0.000000 0.000000
	CHANNELS 6 Xposition Yposition Zposition Xrotation Yrotation Zrotation
	JOINT LeftUpLeg_virtual
	{
		OFFSET 0.000000 0.000000 0.000000
		CHANNELS 3 Xrotation Yrotation Zrotation
		JOINT LeftUpLeg
		{
			OFFSET 10.205400 -3.823500 0.155100
			CHANNELS 3 Xrotation Yrotation Zrotation
			JOINT LeftLeg
			{
				OFFSET 0.708757 -12.982077 0.567790
				CHANNELS 3 Xrotation Yrotation Zrotation
				JOINT LeftFoot
				{
					OFFSET -0.708756 -10.717838 -2.184338
					CHANNELS 3 Xrotation Yrotation Zrotation
					JOINT LeftToeBase
					{
						OFFSET 0.108149 -7.191104 7.560241
						CHANNELS 3 Xrotation Yrotation Zrotation
						JOINT LeftToe_End
						{
							OFFSET 0.070230 0.081724 4.490308
							CHANNELS 3 Xrotation Yrotation Zrotation
							End Site
							{
								OFFSET 0 0 0
							}
						}
					}
				}
			}
		}
	}
	JOINT RightUpLeg_virtual
	{
		OFFSET 0.000000 0.000000 0.000000
		CHANNELS 3 Xrotation Yrotation Zrotation
		JOINT RightUpLeg
		{
			OFFSET -10.205400 -3.823500 0.005500
			CHANNELS 3 Xrotation Yrotation Zrotation
			JOINT RightLeg
			{
				OFFSET -0.708756 -12.982134 0.610632
				CHANNELS 3 Xrotation Yrotation Zrotation
				JOINT RightFoot
				{
					OFFSET 0.708754 -10.717769 -1.945823
					CHANNELS 3 Xrotation Yrotation Zrotation
					JOINT RightToeBase
					{
						OFFSET -0.108140 -7.191069 7.372968
						CHANNELS 3 Xrotation Yrotation Zrotation
						JOINT RightToe_End
						{
							OFFSET -0.070227 0.081735 4.479403
							CHANNELS 3 Xrotation Yrotation Zrotation
							End Site
							{
								OFFSET 0 0 0
							}
						}
					}
				}
			}
		}
	}
	JOINT Spine_virtual
	{
		OFFSET 0.000000 0.000000 0.000000
		CHANNELS 3 Xrotation Yrotation Zrotation
		JOINT Spine
		{
			OFFSET 0.000000 6.876099 0.125700
			CHANNELS 3 Xrotation Yrotation Zrotation
			JOINT Spine1
			{
				OFFSET 0.000000 5.730043 0.104720
				CHANNELS 3 Xrotation Yrotation Zrotation
				JOINT Spine1_split
				{
					OFFSET 0.000000 5.730043 0.104720
					CHANNELS 3 Xrotation Yrotation Zrotation
					JOINT Spine2
					{
						OFFSET 0.000000 5.730043 0.104720
						CHANNELS 3 Xrotation Yrotation Zrotation
						JOINT Neck_virtual
						{
							OFFSET 0.000000 0.000000 0.000000
							CHANNELS 3 Xrotation Yrotation Zrotation
							JOINT Neck
							{
								OFFSET 0.000000 10.314075 0.188496
								CHANNELS 3 Xrotation Yrotation Zrotation
								JOINT Head
								{
									OFFSET 0.000000 7.643700 -2.377400
									CHANNELS 3 Xrotation Yrotation Zrotation
									JOINT HeadTop_End
									{
										OFFSET 0.000000 43.788605 -13.619600
										CHANNELS 3 Xrotation Yrotation Zrotation
										End Site
										{
											OFFSET 0 0 0
										}
									}
								}
							}
						}
						JOINT LeftShoulder_virtual
						{
							OFFSET 0.000000 0.000000 0.000000
							CHANNELS 3 Xrotation Yrotation Zrotation
							JOINT LeftShoulder
							{
								OFFSET 2.196100 4.412489 0.087492
								CHANNELS 3 Xrotation Yrotation Zrotation
								JOINT LeftShoulder_split
								{
									OFFSET 2.196100 4.412489 0.087492
									CHANNELS 3 Xrotation Yrotation Zrotation
									JOINT LeftArm
									{
										OFFSET 8.771219 -2.981674 -0.026999
										CHANNELS 3 Xrotation Yrotation Zrotation
										JOINT LeftForeArm
										{
											OFFSET 8.512804 0.000000 -0.000000
											CHANNELS 3 Xrotation Yrotation Zrotation
											JOINT LeftHand
											{
												OFFSET 18.484802 0.000000 -0.000000
												CHANNELS 3 Xrotation Yrotation Zrotation
												End Site
												{
													OFFSET 0 0 0
												}
											}
										}
									}
								}
							}
						}
						JOINT RightShoulder_virtual
						{
							OFFSET 0.000000 0.000000 0.000000
							CHANNELS 3 Xrotation Yrotation Zrotation
							JOINT RightShoulder
							{
								OFFSET -2.196100 4.412496 0.070690
								CHANNELS 3 Xrotation Yrotation Zrotation
								JOINT RightShoulder_split
								{
									OFFSET -2.196100 4.412496 0.070690
									CHANNELS 3 Xrotation Yrotation Zrotation
									JOINT RightArm
									{
										OFFSET -8.771282 -2.981682 -0.094208
										CHANNELS 3 Xrotation Yrotation Zrotation
										JOINT RightForeArm
										{
											OFFSET -8.494598 0.000000 0.000000
											CHANNELS 3 Xrotation Yrotation Zrotation
											JOINT RightHand
											{
												OFFSET -18.483803 0.000000 0.000001
												CHANNELS 3 Xrotation Yrotation Zrotation
												End Site
												{
													OFFSET 0 0 0
												}
											}
										}
									}
								}
							}
						}
					}
				}
			}
		}
	}
}
MOTION
Frames: 8
Frame Time: 0.03333333
0.222577 28.197521 -0.575294 0.000000 0.000000 0.000000 -5.043868 -63.720816 -3.751700 -33.875327 6.378872 38.018305 48.483367 -12.964385 -10.806689 -14.624031 -1.422319 -10.305296 -0.341554 0.709050 0.639397 0.000000 0.000000 0.000000 -5.839970 -62.521284 -3.819902 -25.279251 -6.473766 -31.238181 50.387573 10.518033 -6.253773 -25.013158 -2.593717 26.752633 3.576775 -0.025027 0.060636 0.000000 0.000000 0.000000 -4.675289 -61.294889 -2.996403 10.019809 1.998005 -1.144276 7.579447 0.336039 -5.117132 0.512577 -1.973786 1.123183 0.000000 0.000000 0.000000 7.872794 0.727184 -4.901046 -25.453583 23.040600 11.492096 -3.507159 26.247742 -3.076176 0.000000 0.000000 0.000000 8.911228 0.456423 -4.643635 -5.673305 -9.941579 -1.490904 -2.266590 -1.197367 -2.284524 -18.045122 3.696195 -34.902560 4.916897 -49.407994 2.732763 0.000000 0.000000 0.000000 8.472393 0.404581 -4.943560 -4.059967 11.932124 2.042790 1.938178 1.092490 0.687050 -38.834581 -25.062933 32.343114 -157.150604 65.004317 157.648757 0.000000 0.000000 0.000000 
0.198143 28.185032 -0.583445 0.000000 0.000000 0.000000 -4.714643 -63.582572 -3.007508 -33.337761 6.202827 37.240787 47.685335 -12.610298 -10.873536 -14.340935 -1.181369 -10.536624 -0.031685 0.719136 0.487980 0.000000 0.000000 0.000000 -5.527843 -62.599469 -3.091262 -25.741323 -6.027248 -32.127926 50.798671 10.785885 -6.203731 -25.379433 -2.347788 26.916944 3.587597 0.048274 0.061929 0.000000 0.000000 0.000000 -3.947436 -61.010064 -2.096666 9.898360 2.037304 -0.946906 8.069945 0.440004 -4.992603 0.474224 -1.916688 1.200889 0.000000 0.000000 0.000000 8.207283 0.862225 -4.832233 -23.468284 23.129329 11.890157 -2.720063 25.685987 -2.850639 0.000000 0.000000 0.000000 9.304175 0.509140 -4.542660 -5.800149 -10.519621 -2.216186 -2.138772 -0.993915 -2.327488 -16.562755 4.983916 -34.918280 5.271914 -49.740815 2.793599 0.000000 0.000000 0.000000 8.837995 0.522901 -4.753857 -4.130073 12.047087 2.702377 1.554389 0.990120 0.584403 -39.551313 -24.657131 30.973839 -157.360141 64.217985 158.118469 0.000000 0.000000 0.000000 
0.165229 28.239698 -0.575214 0.000000 0.000000 0.000000 -4.100799 -63.461726 -1.996692 -32.808769 5.961673 36.289502 46.588293 -12.289189 -10.773087 -13.803626 -1.038428 -11.086445 0.210144 0.726980 0.374789 0.000000 0.000000 0.000000 -5.018693 -62.619577 -2.161679 -26.005134 -5.761680 -32.880602 50.877393 10.901290 -6.018386 -25.609516 -2.272355 27.025715 3.485081 0.092101 0.042264 0.000000 0.000000 0.000000 -3.134611 -60.667045 -1.110933 9.803628 2.021019 -0.861839 8.486250 0.505670 -4.872917 0.496780 -2.147289 1.255398 0.000000 0.000000 0.000000 8.571887 0.952163 -4.737399 -22.001414 23.250348 11.961556 -2.090828 24.922339 -2.829381 0.000000 0.000000 0.000000 9.659996 0.520926 -4.403348 -5.912581 -10.968926 -2.736112 -2.160959 -0.584277 -2.400866 -15.332274 5.718818 -35.031801 5.752756 -48.866172 2.988900 0.000000 0.000000 0.000000 9.090892 0.590288 -4.560575 -4.191059 11.752021 3.238386 1.035856 0.884727 0.684371 -40.085998 -23.504933 30.298309 -156.877055 64.269300 157.773340 0.000000 0.000000 0.000000 
0.137279 28.319883 -0.553442 0.000000 0.000000 0.000000 -3.471739 -63.295670 -1.022544 -32.446103 5.677281 35.316050 45.587244 -12.031399 -10.522864 -13.232955 -0.995381 -11.833631 0.255666 0.732223 0.355978 0.000000 0.000000 0.000000 -4.474979 -62.579518 -1.251804 -26.061031 -5.601238 -33.370887 50.878462 10.846112 -5.784018 -25.885812 -2.405973 27.032197 3.344208 0.097761 0.019221 0.000000 0.000000 0.000000 -2.511175 -60.306062 -0.301160 9.792587 1.941406 -0.886960 8.821974 0.499475 -4.794829 0.616444 -2.519660 1.213323 0.000000 0.000000 0.000000 8.963144 0.965381 -4.673834 -21.156972 23.402644 11.807906 -1.563763 24.220093 -3.041595 0.000000 0.000000 0.000000 9.988692 0.461454 -4.280762 -5.990397 -11.289361 -3.035401 -2.238777 -0.094127 -2.581008 -14.644667 5.908642 -34.964435 6.052849 -47.110618 3.117923 0.000000 0.000000 0.000000 9.283568 0.566280 -4.422489 -4.231073 11.183650 3.570448 0.607879 0.800259 0.878312 -40.532709 -22.167811 30.320361 -156.578863 64.520781 157.488084 0.000000 0.000000 0.000000 
0.118637 28.384138 -0.515352 0.000000 0.000000 0.000000 -2.918573 -63.106604 -0.205412 -32.336288 5.415556 34.453175 44.988130 -11.777317 -10.219097 -12.825009 -1.015929 -12.527422 0.086162 0.740527 0.437985 0.000000 0.000000 0.000000 -3.959640 -62.424937 -0.467228 -25.919858 -5.486270 -33.630069 50.893112 10.674730 -5.578380 -26.258285 -2.705529 26.998708 3.176200 0.083479 -0.000089 0.000000 0.000000 0.000000 -2.212907 -60.003212 0.224901 9.884203 1.804612 -1.004151 9.061419 0.415652 -4.788516 0.813246 -2.955273 1.160895 0.000000 0.000000 0.000000 9.353864 0.897849 -4.668913 -20.813330 23.569169 11.559053 -1.098060 23.730703 -3.427351 0.000000 0.000000 0.000000 10.293829 0.344607 -4.230429 -6.028201 -11.420373 -3.179679 -2.289351 0.302157 -2.724606 -14.458134 5.774546 -34.624841 5.961639 -45.060052 3.021471 0.000000 0.000000 0.000000 9.470961 0.454895 -4.394441 -4.258811 10.538158 3.691037 0.540486 0.849826 1.139052 -40.856795 -21.233287 30.972418 -157.020243 64.517987 157.817859 0.000000 0.000000 0.000000 
0.107382 28.412491 -0.467350 0.000000 0.000000 0.000000 -2.488319 -62.908515 0.425719 -32.497500 5.253840 33.770904 44.817205 -11.501060 -9.955862 -12.661238 -1.019777 -12.965730 -0.171904 0.756977 0.581071 0.000000 0.000000 0.000000 -3.476885 -62.167207 0.187735 -25.649886 -5.349377 -33.752158 50.945695 10.467654 -5.454958 -26.686288 -3.104231 27.021062 3.046378 0.051197 -0.023879 0.000000 0.000000 0.000000 -2.158937 -59.768130 0.549513 10.049728 1.640318 -1.178825 9.203792 0.284683 -4.860376 0.807259 -3.137259 1.134803 0.000000 0.000000 0.000000 9.682424 0.771286 -4.739146 -20.736410 23.707643 11.307236 -0.547851 23.450939 -3.856209 0.000000 0.000000 0.000000 10.558195 0.198713 -4.279924 -6.044339 -11.367712 -3.243045 -2.290991 0.630891 -2.979574 -14.607903 5.667845 -34.078669 5.432464 -43.199270 2.678135 0.000000 0.000000 0.000000 9.653086 0.285062 -4.488435 -4.283603 10.026000 3.664585 0.779514 0.812114 1.402520 -40.998897 -20.977702 32.086327 -158.158576 64.229029 158.747325 0.000000 0.000000 0.000000 
0.092939 28.400518 -0.405413 0.000000 0.000000 0.000000 -2.115892 -62.700836 0.958475 -32.792336 5.267679 33.314275 44.928486 -11.228197 -9.808296 -12.716586 -1.011452 -13.083310 -0.416132 0.770635 0.746557 0.000000 0.000000 0.000000 -3.043281 -61.938437 0.751434 -25.394619 -5.126407 -33.880095 51.051535 10.318503 -5.430174 -27.085511 -3.518953 27.164559 3.013692 0.026012 -0.064902 0.000000 0.000000 0.000000 -2.174663 -59.625004 0.826497 10.252733 1.482256 -1.388058 9.263155 0.144086 -4.987585 0.724981 -3.165263 1.127196 0.000000 0.000000 0.000000 9.912052 0.625555 -4.872949 -20.673584 23.795727 11.111073 0.069979 23.370734 -4.185452 0.000000 0.000000 0.000000 10.749745 0.060306 -4.415623 -6.040675 -11.232746 -3.250335 -2.210326 0.921665 -3.347288 -14.860871 5.801265 -33.460362 4.650540 -41.816556 2.198712 0.000000 0.000000 0.000000 9.830368 0.106631 -4.662209 -4.313538 9.803996 3.535239 1.220542 0.642583 1.618486 -41.005345 -21.345943 33.327587 -159.556634 63.801207 159.860263 0.000000 0.000000 0.000000 
0.073632 28.362247 -0.336008 0.000000 0.000000 0.000000 -1.681110 -62.541679 1.545660 -33.112976 5.440770 33.050619 45.141342 -10.988355 -9.792805 -12.854693 -1.001655 -12.913063 -0.543957 0.778636 0.887932 0.000000 0.000000 0.000000 -2.586912 -61.735484 1.325024 -25.243940 -4.819066 -34.141421 51.200686 10.257279 -5.469573 -27.406458 -3.927498 27.440434 3.093570 0.015681 -0.139793 0.000000 0.000000 0.000000 -2.067930 -59.542618 1.235892 10.457742 1.361705 -1.603792 9.271586 0.034991 -5.134620 0.603599 -3.078634 1.152521 0.000000 0.000000 0.000000 10.043203 0.503923 -5.019366 -20.518090 23.803033 10.988512 0.689441 23.393092 -4.361579 0.000000 0.000000 0.000000 10.868433 -0.039406 -4.595495 -6.029782 -11.093712 -3.174651 -2.091020 1.105463 -3.626979 -15.117136 6.245716 -33.034640 3.823786 -40.949515 1.719354 0.000000 0.000000 0.000000 9.982218 -0.024013 -4.860833 -4.341135 9.939841 3.379281 1.635019 0.374713 1.830784 -40.797359 -22.041915 34.500474 -160.635340 63.536530 160.604535 0.000000 0.000000 0.000000 
